<svg width="12" height="12" viewBox="0 0 12 12" fill="none" xmlns="http://www.w3.org/2000/svg">
<path d="M2.0625 5.25L5.25 0L8.4375 5.25H2.0625ZM8.625 12C7.89583 12 7.27604 11.7448 6.76562 11.2344C6.25521 10.724 6 10.1042 6 9.375C6 8.64583 6.25521 8.02604 6.76562 7.51563C7.27604 7.00521 7.89583 6.75 8.625 6.75C9.35417 6.75 9.97396 7.00521 10.4844 7.51563C10.9948 8.02604 11.25 8.64583 11.25 9.375C11.25 10.1042 10.9948 10.724 10.4844 11.2344C9.97396 11.7448 9.35417 12 8.625 12ZM0 11.625V7.125H4.5V11.625H0ZM8.62141 10.875C9.04047 10.875 9.39583 10.7304 9.6875 10.4411C9.97917 10.1517 10.125 9.79755 10.125 9.37859C10.125 8.95953 9.98036 8.60417 9.69109 8.3125C9.40172 8.02083 9.04755 7.875 8.62859 7.875C8.20953 7.875 7.85417 8.01964 7.5625 8.30891C7.27083 8.59828 7.125 8.95245 7.125 9.37141C7.125 9.79047 7.26964 10.1458 7.55891 10.4375C7.84828 10.7292 8.20245 10.875 8.62141 10.875ZM1.125 10.5H3.375V8.25H1.125V10.5ZM4.0625 4.125H6.4375L5.25 2.17188L4.0625 4.125Z" fill="#666D75"/>
</svg>
