<svg width="12" height="12" viewBox="0 0 12 12" fill="none" xmlns="http://www.w3.org/2000/svg">
<g clip-path="url(#clip0_135_314)">
<path d="M5.99999 -0.0830078C9.35999 -0.0830078 12.083 2.63999 12.083 5.99999C12.083 9.35999 9.35999 12.083 5.99999 12.083C2.63999 12.083 -0.0830078 9.35999 -0.0830078 5.99999C-0.0830078 2.63999 2.63999 -0.0830078 5.99999 -0.0830078ZM7.22799 6.74999H4.77199C4.89999 8.94199 5.55899 10.583 5.99999 10.583C6.43999 10.583 7.09999 8.94199 7.22799 6.74999ZM10.522 6.74999H8.73199C8.67199 8.01499 8.45699 9.16499 8.10999 10.07C9.36699 9.41699 10.284 8.19799 10.522 6.74999ZM3.26799 6.74999H1.47799C1.71599 8.19799 2.63199 9.41599 3.88999 10.07C3.54199 9.16399 3.32799 8.01499 3.26799 6.74999ZM3.88999 1.92999L3.80399 1.97599C2.59099 2.63899 1.71099 3.83599 1.47799 5.24999H3.26799C3.32799 3.98499 3.54199 2.83599 3.88999 1.92999ZM6.00799 1.41699H5.99199C5.55199 1.43699 4.89899 3.07199 4.77199 5.25099H7.22799C7.10099 3.05899 6.44099 1.41699 5.99999 1.41699H6.00799ZM8.10999 1.92999L8.16999 2.08999C8.48199 2.96999 8.67499 4.05899 8.73199 5.24999H10.522C10.284 3.80199 9.36699 2.58299 8.10999 1.92999Z" fill="#666D75"/>
</g>
<defs>
<clipPath id="clip0_135_314">
<rect width="12" height="12" fill="white"/>
</clipPath>
</defs>
</svg>
