<svg width="12" height="12" viewBox="0 0 12 12" fill="none" xmlns="http://www.w3.org/2000/svg">
<g clip-path="url(#clip0_135_654)">
<path fill-rule="evenodd" clip-rule="evenodd" d="M4.59616 2.10059C5.96016 2.10059 7.07101 3.21074 7.07101 4.57544V5.28254C7.07101 6.04479 6.71746 6.71867 6.1737 7.17333C6.76201 7.26031 7.34466 7.39182 7.91317 7.57708C8.67826 7.82599 9.19232 8.55006 9.19232 9.37807V10.6303L9.02473 10.7343C8.09702 11.3113 6.57462 12 4.59616 12C3.50369 12 1.84766 11.7801 0.166875 10.7343L0 10.6303V9.44666C0 8.56773 0.5579 7.80265 1.38733 7.54172C1.92119 7.37485 2.46566 7.25111 3.01437 7.16979C2.47344 6.71513 2.12131 6.04267 2.12131 5.28254V4.57544C2.12131 3.21074 3.23145 2.10059 4.59616 2.10059ZM7.39628 0C8.76028 0 9.87113 1.11015 9.87113 2.47486V3.18196C9.87113 3.94421 9.51758 4.61879 8.97382 5.07274C9.56213 5.15972 10.1441 5.29194 10.7133 5.47649C11.4784 5.72681 11.9924 6.45018 11.9924 7.27819V8.53047L11.8256 8.63441C11.3405 8.93635 10.6892 9.26585 9.89942 9.51405V9.37828C9.89942 8.24268 9.18949 7.24849 8.13237 6.90484C7.90231 6.82984 7.66977 6.76263 7.43517 6.70332C7.65861 6.26704 7.77811 5.78197 7.77811 5.28276V4.57565C7.77811 3.01013 6.64039 1.71331 5.15052 1.44956C5.54226 0.596794 6.39786 0 7.39628 0Z" fill="#666D75"/>
</g>
<defs>
<clipPath id="clip0_135_654">
<rect width="12" height="12" fill="white"/>
</clipPath>
</defs>
</svg>
