<svg width="12" height="12" viewBox="0 0 12 12" fill="none" xmlns="http://www.w3.org/2000/svg">
<path d="M4.788 10.936C5.054 9.536 5.376 8.052 5.642 6.652H6.342C6.524 8.052 6.818 9.536 7.042 10.936H9.408C9.758 9.508 10.052 8.08 10.402 6.652H11.97V4.972H10.78C11.032 3.824 11.312 2.648 11.578 1.5H9.52C9.31 2.648 9.128 3.824 8.918 4.972H7.77C7.588 3.824 7.392 2.648 7.196 1.5H5.012C4.788 2.648 4.592 3.824 4.368 4.972H3.164C2.968 3.824 2.8 2.648 2.59 1.5H0.42C0.658 2.648 0.924 3.824 1.162 4.972H0V6.652H1.526L2.436 10.936H4.788ZM3.71 8.864C3.682 8.206 3.598 7.506 3.458 6.652H4.018C3.864 7.534 3.78 8.192 3.71 8.864ZM8.316 8.85C8.274 8.136 8.19 7.422 8.064 6.652H8.596C8.47 7.422 8.372 8.15 8.316 8.85Z" fill="#666D75"/>
</svg>
