<svg width="16" height="15" viewBox="0 0 16 15" fill="none" xmlns="http://www.w3.org/2000/svg">
<g clip-path="url(#clip0_135_320)">
<path d="M8.33328 0C4.68816 0 1.63616 2.56685 0.86128 5.85588H2.9232C3.64656 3.97643 5.79424 1.94883 8.33328 1.94883C11.4629 1.94883 14.0091 4.43658 14.0091 7.50039C14.0091 10.5639 11.4629 13.0535 8.33328 13.0535C6.42768 13.0535 4.74384 12.1483 3.71712 10.7323L6 8.51842H0V14.3475L2.29552 12.1003C3.69792 13.8618 5.8792 15 8.33328 15C12.5613 15 16 11.6383 16 7.50039C16 3.36217 12.5613 0 8.33328 0Z" fill="#2B96ED"/>
</g>
<defs>
<clipPath id="clip0_135_320">
<rect width="16" height="15" fill="white"/>
</clipPath>
</defs>
</svg>
