<svg width="20" height="20" viewBox="0 0 20 20" fill="none" xmlns="http://www.w3.org/2000/svg">
<path d="M10.1 16.3684L10 16.4737L9.89 16.3684C5.14 11.8316 2 8.83158 2 5.78947C2 3.68421 3.5 2.10526 5.5 2.10526C7.04 2.10526 8.54 3.15789 9.07 4.58947H10.93C11.46 3.15789 12.96 2.10526 14.5 2.10526C16.5 2.10526 18 3.68421 18 5.78947C18 8.83158 14.86 11.8316 10.1 16.3684ZM14.5 0C12.76 0 11.09 0.852632 10 2.18947C8.91 0.852632 7.24 0 5.5 0C2.42 0 0 2.53684 0 5.78947C0 9.7579 3.4 13.0105 8.55 17.9263L10 19.3158L11.45 17.9263C16.6 13.0105 20 9.7579 20 5.78947C20 2.53684 17.58 0 14.5 0Z" fill="#000000"/>
</svg>
